<svg id="bold" enable-background="new 0 0 32 32" height="512" viewBox="0 0 32 32" width="512" xmlns="http://www.w3.org/2000/svg"><path d="m26 32h-20c-3.314 0-6-2.686-6-6v-20c0-3.314 2.686-6 6-6h20c3.314 0 6 2.686 6 6v20c0 3.314-2.686 6-6 6z" fill="#f5e6fe"/><g fill="#d9a4fc"><path d="m22.667 17.333c-.735 0-1.333-.598-1.333-1.333s.598-1.333 1.333-1.333 1.333.598 1.333 1.333-.598 1.333-1.333 1.333z"/><path d="m21.667 16.5h-6.5c-.276 0-.5-.224-.5-.5s.224-.5.5-.5h6.5c.276 0 .5.224.5.5s-.224.5-.5.5z"/><path d="m17 14.333h-1.833c-.276 0-.5-.224-.5-.5s.224-.5.5-.5h1.616l2.186-2.341c.094-.102.227-.159.365-.159h2.333c.276 0 .5.224.5.5s-.224.5-.5.5h-2.116l-2.186 2.341c-.094.102-.226.159-.365.159z"/><path d="m22.667 12.667c-.735 0-1.333-.598-1.333-1.333s.598-1.333 1.333-1.333c.735-.001 1.333.597 1.333 1.332s-.598 1.334-1.333 1.334z"/><path d="m21.667 21.167h-2.333c-.139 0-.271-.057-.365-.159l-2.186-2.341h-1.616c-.276 0-.5-.224-.5-.5s.224-.5.5-.5h1.833c.139 0 .271.057.365.159l2.186 2.341h2.116c.276 0 .5.224.5.5s-.224.5-.5.5z"/><path d="m22.667 22c-.735 0-1.333-.598-1.333-1.333s.598-1.333 1.333-1.333 1.333.598 1.333 1.333-.598 1.333-1.333 1.333z"/></g><path d="m16.203 20h-.203-.833-5.167c-.368 0-.667-.299-.667-.667v-6.667c0-.367.299-.666.667-.666h5.167.833.203l.915-.98c-.169-.114-.356-.205-.556-.264l-.171-1.706c-.06-.598-.559-1.05-1.161-1.05h-4.46c-.602 0-1.101.452-1.16 1.05l-.171 1.706c-.829.245-1.439 1.004-1.439 1.911v6.667c0 .907.61 1.666 1.439 1.91l.171 1.706c.059.598.558 1.05 1.16 1.05h4.46c.602 0 1.101-.452 1.16-1.05l.171-1.706c.2-.059.387-.15.556-.264z" fill="#be63f9"/></svg>